# xmcd
#
# Track frame offsets: 
#        175
#        3965
#        13670
#        27370
#        40720
#        59587
#        77057
#        93827
#        109172
#        121190
#        133932
#        146782
#        156230
#        177295
#        183632
#        197645
#        216027
#        226625
#        242970
#        258240
#        269032
#        284772
#        298145
#
# Disc length: 4190 seconds
#
# Revision: 2
# Processed by: cddbd v1.5.2PL0 Copyright (c) Steve Scherf et al.
# Submitted via: ExactAudioCopy v1.0b1
#
DISCID=57105c17
DTITLE=Various Artist - Negro Prison Blues And Songs
DYEAR=1900
DGENRE=
TTITLE0=Murder's Home
TTITLE1=No More, My Lawd
TTITLE2=Old Alabama
TTITLE3=Black Woman
TTITLE4=Jumpin' Judy
TTITLE5=Whoa Buck
TTITLE6=Prettiest Train
TTITLE7=Old Dollar Mamie
TTITLE8=It Makes A Long Time Man Feel Bad
TTITLE9=Rosie
TTITLE10=Levee Camp Holler
TTITLE11=What Makes A Work Song Leader?
TTITLE12=Early In The Mornin'
TTITLE13=How I Got In The Penitentiary
TTITLE14=Tangle Eye Blues
TTITLE15=Stackerlee
TTITLE16=Prison Blues
TTITLE17=Duckin' And Dodgin'
TTITLE18=My Baby Got To Go
TTITLE19=Penitentiary Blues
TTITLE20=Lonesome Blues
TTITLE21=They'll Miss Me When I'm Gone
TTITLE22=Rock Me Mama
EXTD=
EXTT0=
EXTT1=
EXTT2=
EXTT3=
EXTT4=
EXTT5=
EXTT6=
EXTT7=
EXTT8=
EXTT9=
EXTT10=
EXTT11=
EXTT12=
EXTT13=
EXTT14=
EXTT15=
EXTT16=
EXTT17=
EXTT18=
EXTT19=
EXTT20=
EXTT21=
EXTT22=
PLAYORDER=
